<svg width="32" height="40" viewBox="0 0 172 216" fill="none" xmlns="http://www.w3.org/2000/svg">
<path d="M164.48 31.57H7.09998C5.21694 31.57 3.41104 30.822 2.07953 29.4905C0.748021 28.159 0 26.353 0 24.47V7.10001C0 6.16762 0.183597 5.24438 0.540405 4.38297C0.897214 3.52155 1.42023 2.73886 2.07953 2.07956C2.73882 1.42026 3.52152 0.897275 4.38293 0.540466C5.24435 0.183658 6.16759 0 7.09998 0H164.48C165.412 0 166.336 0.183658 167.197 0.540466C168.058 0.897275 168.841 1.42026 169.5 2.07956C170.16 2.73886 170.683 3.52155 171.039 4.38297C171.396 5.24438 171.58 6.16762 171.58 7.10001V24.44C171.58 25.3724 171.396 26.2957 171.039 27.1571C170.683 28.0185 170.16 28.8012 169.5 29.4605C168.841 30.1198 168.058 30.6427 167.197 30.9995C166.336 31.3563 165.412 31.54 164.48 31.54" fill="#17173A"/>
<path d="M92.13 211.24L111.34 173.15C111.839 172.159 112.1 171.065 112.1 169.955C112.1 168.845 111.839 167.751 111.34 166.76L62.05 68.68C61.4583 67.5035 60.551 66.5147 59.4296 65.8242C58.3083 65.1337 57.0169 64.7687 55.7 64.77H17.16C15.9447 64.7645 14.7483 65.0711 13.6854 65.6604C12.6225 66.2496 11.7287 67.1018 11.0894 68.1354C10.4502 69.1691 10.087 70.3495 10.0346 71.5636C9.98214 72.7778 10.2422 73.9851 10.79 75.07L79.42 211.24C80.0118 212.414 80.9178 213.4 82.0372 214.09C83.1566 214.779 84.4454 215.144 85.76 215.144C87.0746 215.144 88.3634 214.779 89.4828 214.09C90.6022 213.4 91.5082 212.414 92.1 211.24" fill="#17173A"/>
<path d="M154.42 64.77H124.42C123.207 64.7697 122.015 65.08 120.956 65.6714C119.897 66.2627 119.007 67.1155 118.372 68.1483C117.736 69.181 117.375 70.3595 117.324 71.5712C117.273 72.7829 117.533 73.9874 118.08 75.07L133.08 104.81C133.671 105.986 134.577 106.976 135.697 107.667C136.818 108.358 138.109 108.724 139.425 108.724C140.741 108.724 142.032 108.358 143.153 107.667C144.273 106.976 145.179 105.986 145.77 104.81L160.77 75.07C161.317 73.9874 161.577 72.7829 161.526 71.5712C161.475 70.3595 161.114 69.181 160.478 68.1483C159.843 67.1155 158.953 66.2627 157.894 65.6714C156.835 65.08 155.643 64.7697 154.43 64.77" fill="#17173A"/>
</svg>
